<svg width="225" height="225" viewBox="0 0 225 225" fill="none" xmlns="http://www.w3.org/2000/svg">
<rect width="225" height="225" rx="112.5" fill="#AFAFAF"/>
<path d="M132.654 149.737C133.368 149.735 134.067 149.947 134.662 150.344C135.257 150.741 135.721 151.307 135.995 151.97C136.27 152.632 136.343 153.362 136.204 154.066C136.066 154.77 135.723 155.417 135.218 155.925C134.714 156.433 134.071 156.779 133.37 156.92C132.67 157.06 131.943 156.989 131.283 156.715C130.623 156.44 130.059 155.976 129.662 155.379C129.265 154.783 129.053 154.081 129.053 153.364C129.051 152.888 129.144 152.416 129.324 151.976C129.505 151.537 129.77 151.137 130.104 150.8C130.439 150.463 130.836 150.196 131.274 150.013C131.711 149.831 132.18 149.737 132.654 149.737ZM135.84 95.9894C136.62 96.1849 137.308 96.6493 137.782 97.3017C138.735 98.5341 139 100.529 138.735 102.621C138.494 104.575 137.828 106.452 136.785 108.119C135.628 109.892 134.137 111.036 132.371 110.92C132.248 116.692 129.432 119.343 125.76 122.81L124.357 124.149L123.88 124.601L123.995 124.681C123.552 125.036 123.086 125.362 122.601 125.656C121.36 126.584 119.988 127.323 118.532 127.846C116.59 128.519 114.548 128.855 112.494 128.839C110.363 128.872 108.241 128.542 106.219 127.864L105.336 127.545C104.178 127.196 103.069 126.702 102.035 126.073L101.594 125.798C101.103 127.284 100.434 128.705 99.5989 130.027L113.297 139.612L126.166 128.839C125.366 127.58 124.706 126.236 124.198 124.832C129.873 128.884 131.1 137.342 130.915 144.169C130.915 145.056 130.862 145.286 130.844 145.579C129.469 145.887 128.201 146.56 127.173 147.529C126.146 148.497 125.396 149.725 125.003 151.085C124.609 152.444 124.587 153.885 124.938 155.256C125.288 156.627 125.999 157.878 126.996 158.878C128.31 160.313 130.128 161.18 132.066 161.296C134.003 161.412 135.91 160.767 137.385 159.499C138.323 158.762 139.083 157.821 139.606 156.745C140.129 155.67 140.402 154.489 140.403 153.293C140.404 152.047 140.075 150.823 139.45 149.746C138.126 147.441 136.687 146.767 134.49 145.668C134.34 145.588 134.49 145.251 134.49 144.311C134.684 140.108 134.25 135.9 133.201 131.827C134.163 132.331 135.167 132.75 136.202 133.077C144.058 134.939 153.714 135.737 157.174 137.688C158.889 138.627 160.392 139.913 161.587 141.465C164.65 145.526 164.906 157.212 166 162.177C165.726 165.085 164.093 166.752 160.863 167H63.137C59.9153 166.699 58.2736 165.023 58 162.124C59.1121 157.158 59.3769 145.464 62.4132 141.412C63.6131 139.847 65.133 138.559 66.8705 137.635C71.7869 134.886 83.8349 134.141 91.8493 131.907C91.0948 134.204 90.6264 136.587 90.4547 139C89.5721 139.683 87.2419 140.481 86.5093 141.359C85.2332 142.89 84.0932 144.53 83.1023 146.262C82.9468 146.531 82.8646 146.837 82.864 147.148C82.864 147.397 83.12 147.654 83.0141 147.866L82.8464 148.194C80.5515 152.628 79.0598 157.602 79.7659 159.721C79.956 160.225 80.2689 160.673 80.6759 161.025C81.083 161.377 81.5712 161.62 82.0961 161.733C83.0036 161.974 83.938 162.096 84.8764 162.097C85.15 162.097 85.4325 162.097 85.7061 162.097C85.8465 162.228 86.0003 162.344 86.1651 162.443C86.3533 162.555 86.5512 162.65 86.7565 162.726C87.013 162.825 87.2851 162.876 87.5597 162.877C87.8528 162.877 88.1431 162.819 88.4136 162.705C88.6842 162.592 88.9296 162.425 89.1356 162.216C89.3417 162.006 89.5043 161.758 89.6141 161.485C89.7239 161.212 89.7786 160.92 89.7751 160.625C89.7682 160.319 89.6991 160.017 89.5721 159.738C89.4023 159.318 89.1119 158.958 88.7379 158.704C88.3638 158.45 87.923 158.313 87.4714 158.311C86.6594 158.311 85.5031 158.719 85.5031 159.535V159.588H84.9382C84.2449 159.594 83.5538 159.51 82.8817 159.339C82.4845 159.233 82.255 159.082 82.202 158.914C81.6901 157.424 83.0847 153.301 85.1059 149.312L85.3619 148.824C85.7362 148.673 86.0477 148.397 86.2445 148.044C87.1182 146.504 88.1253 145.044 89.2543 143.682C90.0925 142.91 91.1238 142.383 92.2377 142.156H92.423C92.9778 142.557 93.4869 143.018 93.9412 143.531C95.1459 144.898 96.2105 146.383 97.1187 147.964C97.3217 148.327 97.816 148.407 98.0013 148.753C100.34 152.548 101.655 156.901 101.338 158.559C101.267 158.949 100.949 159.18 100.455 159.339C99.7011 159.546 98.9241 159.657 98.1425 159.668C98.1166 159.61 98.0871 159.553 98.0543 159.499C98.0543 158.683 96.8892 158.302 96.0771 158.276C95.6256 158.277 95.1847 158.414 94.8107 158.668C94.4366 158.922 94.1462 159.283 93.9765 159.703C93.8532 159.983 93.7843 160.284 93.7735 160.59C93.7735 161.18 94.0069 161.746 94.4223 162.163C94.8378 162.581 95.4013 162.815 95.9889 162.815C96.2664 162.814 96.5414 162.763 96.8009 162.664C97.0033 162.588 97.1983 162.493 97.3835 162.381C97.4942 162.314 97.6003 162.24 97.7012 162.159H98.019C99.111 162.182 100.2 162.039 101.249 161.733C101.89 161.578 102.472 161.24 102.926 160.76C103.38 160.281 103.687 159.679 103.809 159.029C104.197 156.866 102.635 152.096 100.331 147.769C100.428 147.542 100.476 147.297 100.473 147.051C100.464 146.739 100.38 146.435 100.226 146.164C99.1861 144.365 97.9741 142.672 96.6067 141.11C95.8741 140.286 94.2589 140.046 94.0912 138.947C93.6499 136.083 94.8856 132.537 96.7391 129.451C97.2239 128.843 97.6551 128.193 98.0278 127.509L98.3102 127.119C99.1495 126.268 100.183 125.635 101.32 125.275C100.89 124.95 100.458 124.595 100.023 124.211L98.6633 122.987L98.575 122.908C95.0445 119.822 92.0347 117.207 91.5139 110.885C89.0602 110.672 87.3213 108.331 86.4652 105.565C86.0157 104.09 85.8217 102.549 85.8915 101.008C85.9025 99.553 86.3687 98.1386 87.2243 96.9647C87.389 96.7536 87.5753 96.5604 87.7803 96.3884L87.6567 96.3086C87.0919 89.2155 88.7424 76.9622 81.0987 74.6393C95.5211 56.6229 111.409 53.3246 124.728 64.3188C138.568 65.0902 145.249 85.1636 135.84 95.9894ZM95.2386 91.5563C94.5622 93.743 94.5011 96.0752 95.0621 98.2947C95.1556 98.6001 95.1483 98.9278 95.0412 99.2287C94.934 99.5296 94.7329 99.7876 94.4677 99.9642C94.2025 100.141 93.8876 100.226 93.57 100.208C93.2524 100.19 92.9491 100.07 92.7055 99.864C90.9402 98.3567 89.8722 98.2149 89.4132 98.7646C88.9723 99.4512 88.7421 100.253 88.7512 101.07C88.6971 102.269 88.8493 103.469 89.2014 104.616C89.8016 106.594 90.9667 108.216 92.3612 107.808C92.4977 107.762 92.6408 107.738 92.7849 107.737C92.9785 107.733 93.1711 107.766 93.3517 107.836C93.5324 107.906 93.6975 108.012 93.8376 108.146C93.9778 108.28 94.0903 108.441 94.1686 108.619C94.247 108.796 94.2896 108.988 94.2942 109.183C94.4443 115.389 97.154 117.756 100.473 120.62L100.561 120.691L101.973 121.932C103.462 123.293 105.209 124.337 107.11 125C108.377 125.429 109.695 125.688 111.029 125.771C112.017 125.791 113.005 125.743 113.986 125.63C115.318 125.488 116.633 125.217 117.914 124.823C119.532 124.165 121.005 123.191 122.247 121.959L123.677 120.594C127.208 117.278 129.785 114.83 129.291 108.881C129.268 108.604 129.323 108.325 129.45 108.078C129.577 107.83 129.771 107.624 130.01 107.482C130.249 107.34 130.522 107.269 130.8 107.277C131.077 107.284 131.346 107.37 131.577 107.525C132.574 108.19 133.563 107.525 134.296 106.425C135.097 105.14 135.606 103.693 135.787 102.187C136.029 101.136 135.901 100.033 135.425 99.0661C135.072 98.605 134.128 98.7912 132.31 100.183C132.079 100.38 131.794 100.502 131.493 100.531C131.191 100.559 130.889 100.494 130.625 100.344C130.362 100.194 130.151 99.9661 130.022 99.6915C129.892 99.4168 129.849 99.1087 129.9 98.8089C131.189 91.2371 130.544 86.5556 128.894 83.4347C127.455 80.7748 125.16 79.1345 122.715 77.8312C117.287 81.9983 113.456 82.4682 109.643 82.947C106.492 83.3372 103.359 83.7273 99.2017 86.6088C97.3912 87.7889 96.0076 89.5239 95.2563 91.5563H95.2386Z" fill="white"/>
</svg>
