<svg width="22" height="22" viewBox="0 0 22 22" fill="none" xmlns="http://www.w3.org/2000/svg">
<path d="M7.92041 14.0822V10.5076L15.4982 2.93547C15.6498 2.7837 15.8168 2.67319 15.999 2.60391C16.1813 2.53464 16.3741 2.5 16.5773 2.5C16.7635 2.5 16.955 2.53799 17.1518 2.61397C17.3485 2.68996 17.5263 2.80394 17.6851 2.95592L19.0224 4.31136C19.182 4.4709 19.3016 4.64455 19.3809 4.83228C19.4603 5.02002 19.5 5.21282 19.5 5.41069C19.5 5.61115 19.4584 5.81012 19.3752 6.00761C19.2921 6.20512 19.1746 6.37975 19.0227 6.5315L11.4969 14.0822H7.92041ZM16.7947 6.8499L18.1828 5.41087L16.5648 3.79508L15.1566 5.21267L16.7947 6.8499ZM4.54486 19C4.12148 19 3.75815 18.8484 3.45489 18.5453C3.15163 18.2422 3 17.8791 3 17.456V5.66551C3 5.23922 3.15163 4.87341 3.45489 4.56809C3.75815 4.26276 4.12148 4.1101 4.54486 4.1101H12.6587L6.76254 10.0152V15.2395H11.942L17.8978 9.28734V17.456C17.8978 17.8791 17.7451 18.2422 17.4396 18.5453C17.1341 18.8484 16.7681 19 16.3416 19H4.54486Z" fill="white"/>
</svg>
